<svg xmlns="http://www.w3.org/2000/svg" width="74" height="74"><path fill="#D66061" d="M27 12.1v-1.9C27 4.5 31.4 0 37 0s10 4.5 10 10.2V12c10 .5 18 8.8 18 19v35h5.8c.7 0 1.2-.6 1.2-1.2V49c0-4.4-2.9-8-6.5-8v-2c4.7 0 8.5 4.5 8.5 10v15.8c0 1.8-1.5 3.2-3.2 3.2H65v2.8c0 1.7-1.5 3.2-3.2 3.2H12.2C10.5 74 9 72.5 9 70.8V68H3.2C1.5 68 0 66.5 0 64.8V49c0-5.5 3.8-10 8.5-10v2C4.9 41 2 44.6 2 49v15.8c0 .6.6 1.2 1.2 1.2H9V31c0-10 7.7-18.2 17.5-18.9h.5zm0 1.9c-8.9.5-16 7.9-16 17v39.8c0 .7.6 1.2 1.2 1.2H21V48.2c0-1.8 1.5-3.2 3.2-3.2h25.5c1.8 0 3.2 1.5 3.2 3.2V72h8.9c.7 0 1.2-.6 1.2-1.3V31c0-9-7.1-16.5-16-17H27zm-4 58h28V48.2c0-.7-.6-1.2-1.2-1.2H24.2c-.7 0-1.2.6-1.2 1.2V72zm6-60h16v-1.8C45 5.6 41.5 2 37 2s-8 3.6-8 8.2V12zm21.5 44h-27v-2h27v2zm-6.7-21H30.2c-1.8 0-3.2-1.5-3.2-3.2v-4.5c0-1.8 1.5-3.2 3.2-3.2h13.5c1.8 0 3.2 1.5 3.2 3.2v4.5c.1 1.7-1.4 3.2-3.1 3.2zm-13.6-9c-.7 0-1.2.6-1.2 1.2v4.5c0 .7.6 1.2 1.2 1.2h13.5c.7 0 1.2-.6 1.2-1.2v-4.5c0-.7-.601-1.2-1.2-1.2H30.2z"/></svg>