<svg xmlns="http://www.w3.org/2000/svg" width="48" height="48"><path fill="#D66061" d="M37.5 47.3h-4.7c-1.3 0-2.399-1.1-2.399-2.399V41.6H17.2v3.3c0 1.3-1.1 2.399-2.4 2.399H10c-1.3 0-2.4-1.1-2.4-2.399v-3.3c-1.1-.2-1.9-1.1-1.9-2.2V26.5H2.4C1.1 26.5 0 25.4 0 24v-8.5c0-1.3 1.1-2.4 2.4-2.4h3.3V6.6c0-1.6.9-2.9 2.4-3.5C13.1 1 18.4 0 23.7 0h.1c5.3 0 10.6 1.1 15.5 3.1 1.5.6 2.4 2 2.4 3.5v6.5H45c1.3 0 2.4 1.1 2.4 2.4V24c0 1.3-1.101 2.4-2.4 2.4h-3.3v12.9c0 1.101-.8 1.9-1.9 2.2v3.3c.1 1.4-1 2.5-2.3 2.5zm-5.2-5.7v3.3c0 .199.2.399.4.399h4.7a.43.43 0 0 0 .399-.399v-3.3H32.3zm-22.7 0v3.3c0 .2.2.4.4.4h4.7c.2 0 .4-.2.4-.399V41.6H9.6zm29.3-2h.4c.2 0 .5-.1.5-.199V6.6c0-.7-.5-1.4-1.2-1.7C33.9 3 28.9 2 23.8 2h-.1C18.6 2 13.6 3 8.9 4.9c-.7.3-1.2 1-1.2 1.7v32.8c0 .2.3.2.5.2h30.7zm2.9-15.1h3.3c.2 0 .4-.2.4-.4v-8.5c0-.2-.2-.4-.4-.4h-3.3v9.3zM2.4 15.1c-.2 0-.4.2-.4.4V24c0 .2.2.4.4.4h3.3V15H2.4v.1zM32.2 38c-2.101 0-3.8-1.7-3.8-3.8 0-2.101 1.699-3.8 3.8-3.8 2.1 0 3.8 1.699 3.8 3.8 0 2.1-1.6 3.8-3.8 3.8zm0-5.7c-1 0-1.8.8-1.8 1.8s.8 1.801 1.8 1.801S34 35.1 34 34.1s-.7-1.8-1.8-1.8zm-17 5.7c-2.1 0-3.8-1.7-3.8-3.8 0-2.101 1.7-3.8 3.8-3.8 2.1 0 3.8 1.699 3.8 3.8 0 2.1-1.7 3.8-3.8 3.8zm0-5.7c-1 0-1.8.8-1.8 1.8s.8 1.801 1.8 1.801S17 35.1 17 34.1s-.8-1.8-1.8-1.8zM37 28.4H10.5c-.6 0-1-.4-1-1V10.3c0-.6.4-1 1-1H37c.6 0 1 .4 1 1v17.1c0 .5-.4 1-1 1zm-25.5-2H36V11.3H11.5v15.1zm17-18.9H19v-2h9.5v2z"/></svg>