<svg xmlns="http://www.w3.org/2000/svg" width="74" height="74"><path fill="#D66061" d="M53.1 9.8l-.948.316.007.02.941-.336zm2.5 7l-.941.336.031.078.91-.414zm-37.1 0l.91.414a.908.908 0 0 0 .032-.078L18.5 16.8zm2.5-7l.942.336.007-.02L21 9.8zm27.9-2c1.479 0 2.79.934 3.251 2.316l1.897-.632C53.31 7.266 51.221 5.8 48.9 5.8v2zm3.258 2.336l2.5 7 1.883-.672-2.5-7-1.883.672zm2.531 7.078c.348.765.975 1.402 1.678 1.845.704.444 1.562.741 2.433.741v-2c-.429 0-.921-.153-1.366-.433-.448-.282-.771-.645-.924-.98l-1.821.827zM58.8 19.8h12v-2h-12v2zm12 0c.647 0 1.2.553 1.2 1.2h2a3.22 3.22 0 0 0-3.2-3.2v2zM72 21v40.6h2V21h-2zm0 40.6c0 .617-.521 1.101-1.1 1.101v2c1.621 0 3.1-1.317 3.1-3.101h-2zm-1.1 1.1H3.4v2h67.5v-2zm-67.5 0c-.706 0-1.3-.608-1.3-1.2h-2c0 1.809 1.605 3.2 3.3 3.2v-2zm-1.3-1.2V21.1h-2v40.4h2zm0-40.4c0-.72.624-1.3 1.3-1.3v-2c-1.724 0-3.3 1.42-3.3 3.3h2zm1.3-1.3h11.9v-2H3.4v2zm11.9 0c.829 0 1.684-.302 2.388-.736.702-.433 1.368-1.068 1.723-1.85l-1.82-.828c-.145.318-.479.683-.953.975-.472.291-.967.439-1.338.439v2zm4.142-2.664l2.5-7-1.884-.672-2.5 7 1.884.672zm2.507-7.02C22.41 8.734 23.721 7.8 25.2 7.8v-2c-2.321 0-4.41 1.466-5.149 3.684l1.898.632zM25.2 7.8h23.7v-2H25.2v2zm11.9 45c8.852 0 16-7.147 16-16h-2c0 7.748-6.252 14-14 14v2zm16-16c0-8.852-7.147-16-16-16v2c7.748 0 14 6.252 14 14h2zm-16-16c-8.853 0-16 7.148-16 16h2c0-7.748 6.252-14 14-14v-2zm-16 16c0 8.853 7.147 16 16 16v-2c-7.748 0-14-6.252-14-14h-2zM72.293.293l-72 72 1.414 1.414 72-72L72.293.293z"/></svg>