<svg xmlns="http://www.w3.org/2000/svg" width="50" height="42"><path fill="#D66061" d="M44.5 41.6h-5.9c-1.6 0-3-1.3-3-3v-3H13.9v3c0 1.601-1.3 3-3 3H5c-1.6 0-3-1.3-3-3v-3.4c-1.2-.601-2-1.8-2-3.3v-9.8c0-3.2 1.4-6.2 3.8-8.2-.8 0-1.6-.3-2-.9-.4-.5-.6-1.1-.4-1.8l.4-1.7c.2-1 1-1.6 2.4-1.6h4.4l2.5-5.8C11.9.8 13.2 0 14.6 0h20.2c1.4 0 2.7.8 3.5 2.1l2.6 5.8h4.4c.601 0 2.101 0 2.4 1.6l.4 1.5c.2.8 0 1.5-.5 2-.5.6-1.199.9-2 .9h-.5c2.601 2.2 4.301 5.3 4.301 8.2v9.8c0 1.5-.801 2.699-2 3.3v3.4c.099 1.6-1.201 3-2.901 3zm-6.9-6v3c0 .5.4 1 1 1h5.9c.5 0 1-.399 1-1v-3h-7.9zM4 35.6v3c0 .5.4 1 1 1h5.9c.5 0 1-.399 1-1v-3H4zm21.7-2h19.8c1 0 2-.6 2-1.8V22c0-2.6-1.6-5.4-4.2-7.2 0 0-.1 0-.1-.1l-1-.9h-.1c-.699 1.2-2 2-3.5 2H10.9c-1.5 0-2.8-.8-3.5-2h-.3l-1.4 1C3.4 16.5 2 19.2 2 22.1v9.8c0 1 .8 1.8 1.9 1.8h21.8v-.1zm0-19.7h12.9c1.101 0 1.9-.7 2-1.7l-4-9.2c-.3-.6-1-1-1.699-1H14.6c-.7 0-1.4.4-1.7 1.1l-4 9.1c.1 1 .9 1.7 2 1.7h14.8zm17.2-2h2.8c.2 0 .3-.1.399-.2.101-.1.101-.2.101-.3l-.4-1.5h-4.1l.6 1.5.6.5zm-39.6-.3v.1c0 .1.2.1.5.1h2.7l.5-.3.7-1.6H3.6l-.3 1.7zm33.3 18.1c-.5 0-1-.4-1-.9-.1-1.1-.2-4.9 1.5-5.9 2.601-1.5 5.801-2 6.301-2.101.199 0 .5-.1 1.1.3.4.3 1.1 1.1 1.1 2.6 0 0-.199 4.7-1.399 5.7-.202.101-.402.201-.602.201l-7 .1zm6.7-6.9c-.9.2-3.3.7-5.2 1.8-.3.2-.5 1.601-.5 3.101h5.3c.3-.9.6-3.101.6-3.9 0-.501-.1-.801-.2-1.001zm.5 0h-.1.1zm-31 6.9H5.9c-.2 0-.5-.101-.6-.2-1.2-1-1.4-5.7-1.4-5.7 0-1.5.7-2.3 1.1-2.6.5-.4.9-.4 1-.3.5.1 3.6.6 6.3 2.1 1.7 1 1.6 4.8 1.5 5.9 0 .4-.4.8-1 .8zm-6.3-2h5.3c0-1.5-.2-2.9-.5-3.101C9.4 23.5 7 23 6.1 22.8c-.1.2-.2.5-.2 1 0 .8.3 3 .6 3.9zm-.8-5h.1c-.1.1-.1.1-.1 0zm26 7H17.8c-.5 0-.9-.4-1-.8l-1-5.9c0-.3 0-.6.2-.8s.5-.4.8-.4h15.9c.3 0 .6.101.8.4.2.2.3.5.2.8l-1 5.9c-.1.5-.5.8-1 .8zm-13.1-2h12.2l.7-3.9H18l.6 3.9z"/></svg>