<svg xmlns="http://www.w3.org/2000/svg" width="75" height="75"><path fill="#D66061" d="M56.5 75h-2v-9h2v9zm-12 0h-2v-9h2v9zm-12 0h-2v-9h2v9zm-12 0h-2v-9h2v9zM60 65.5H15c-3 0-5.5-2.5-5.5-5.5V15c0-3 2.5-5.5 5.5-5.5h45c3 0 5.5 2.5 5.5 5.5v45c0 3-2.5 5.5-5.5 5.5zm-45-54c-1.9 0-3.5 1.6-3.5 3.5v45c0 1.9 1.6 3.5 3.5 3.5h45c1.9 0 3.5-1.6 3.5-3.5V15c0-1.9-1.6-3.5-3.5-3.5H15zm60 45h-9v-2h9v2zm-19.5 0h-36c-.6 0-1-.4-1-1v-36c0-.6.4-1 1-1h36c.6 0 1 .4 1 1v36c0 .6-.4 1-1 1zm-35-2h34v-34h-34v34zM9 56.5H0v-2h9v2zm66-12h-9v-2h9v2zm-66 0H0v-2h9v2zm66-12h-9v-2h9v2zm-66 0H0v-2h9v2zm66-12h-9v-2h9v2zm-66 0H0v-2h9v2zM56.5 9h-2V0h2v9zm-12 0h-2V0h2v9zm-12 0h-2V0h2v9zm-12 0h-2V0h2v9z"/></svg>