<svg xmlns="http://www.w3.org/2000/svg" width="62" height="74"><path fill="#D66061" d="M31 74C13.9 74 0 60.1 0 43c0-15.6 11.5-28.5 26.5-30.7C25 11 24 9.1 24 7c0-3.9 3.1-7 7-7s7 3.1 7 7c0 2.1-1 4-2.5 5.3C50.5 14.5 62 27.4 62 43c0 17.1-13.9 31-31 31zm0-60C15 14 2 27 2 43s13 29 29 29 29-13 29-29-13-29-29-29zm0-12c-2.8 0-5 2.2-5 5s2.2 5 5 5 5-2.2 5-5-2.2-5-5-5zm0 66C17.2 68 6 56.8 6 43s11.2-25 25-25 25 11.2 25 25-11.2 25-25 25zm0-48C18.3 20 8 30.3 8 43s10.3 23 23 23 23-10.3 23-23-10.3-23-23-23zm1 45.5h-2v-6h2v6zM19 56c-.3 0-.5-.1-.7-.3-.3-.3-.4-.7-.2-1L24.2 37c.1-.3.3-.5.6-.6l17.9-6.3c.399-.1.8 0 1 .2.3.3.399.7.3 1l-5.7 18.3c-.1.3-.3.6-.7.7L19.3 56H19zm6.6-17l-5 14.5 14.8-4.6-9.8-9.9zm1.5-1.3l9.7 9.7 4.6-14.8-14.3 5.1zM53.5 44h-6v-2h6v2zm-39 0h-6v-2h6v2zM32 26.5h-2v-6h2v6z"/></svg>