<svg xmlns="http://www.w3.org/2000/svg" width="74" height="50"><path fill="#D66061" d="M1 25l-.929-.372a1.004 1.004 0 0 0 0 .743L1 25zm72 0l.929.372a1.004 1.004 0 0 0 0-.743L73 25zM1 25l.928.372v-.001l.004-.01.019-.044a23.764 23.764 0 0 1 .415-.916c.304-.634.769-1.547 1.41-2.646a44.04 44.04 0 0 1 6.049-8.065C15.387 7.834 24.14 2 37 2V0C23.459 0 14.213 6.166 8.375 12.312a46.006 46.006 0 0 0-6.326 8.435 39.442 39.442 0 0 0-1.487 2.791c-.162.338-.283.607-.364.792-.041.093-.071.166-.092.216-.01.025-.019.044-.024.059l-.007.016-.002.005-.001.001c0 .001-.001.001.928.373zM37 2c12.859 0 21.613 5.834 27.175 11.688a44.075 44.075 0 0 1 6.049 8.065 36.89 36.89 0 0 1 1.41 2.646 23.764 23.764 0 0 1 .434.96l.004.01.001.001.928-.372c.929-.372.928-.372.928-.373v-.001a.008.008 0 0 1-.002-.005l-.008-.016-.023-.059-.092-.216a28.558 28.558 0 0 0-.365-.793 38.533 38.533 0 0 0-1.486-2.791 46.04 46.04 0 0 0-6.326-8.435C59.787 6.166 50.541 0 37 0v2zm36 23l-.928-.372-.001.001-.004.01-.019.044a23.764 23.764 0 0 1-.415.916 37.086 37.086 0 0 1-1.41 2.646 44.039 44.039 0 0 1-6.049 8.064C58.613 42.166 49.859 48 37 48v2c13.541 0 22.787-6.166 28.625-12.311a46.008 46.008 0 0 0 6.326-8.436 38.323 38.323 0 0 0 1.486-2.791c.162-.339.283-.607.365-.793l.092-.216c.01-.025.019-.044.023-.059l.008-.016.002-.005v-.001L73 25zM37 48c-12.86 0-21.613-5.834-27.175-11.689a44.073 44.073 0 0 1-6.049-8.064 37.526 37.526 0 0 1-1.41-2.646 21.542 21.542 0 0 1-.335-.73l-.08-.186-.019-.044-.004-.01v-.001L1 25.002l-.928.373.001.001.002.005.007.016.024.059.092.216c.081.186.202.454.364.793a38.81 38.81 0 0 0 1.487 2.791 46.042 46.042 0 0 0 6.326 8.436C14.213 43.834 23.459 50 37 50v-2zm.3-36c-7.152 0-13 5.848-13 13h2c0-6.048 4.953-11 11-11v-2zm-13 13c0 7.152 5.848 13 13 13v-2c-6.047 0-11-4.952-11-11h-2zm13 13c7.152 0 13-5.848 13-13h-2c0 6.048-4.952 11-11 11v2zm13-13c0-7.147-5.742-13-13-13v2c6.143 0 11 4.947 11 11h2z"/></svg>