<svg xmlns="http://www.w3.org/2000/svg" width="70" height="48"><path fill="#D66061" d="M54.4 47h-.7c-8-.4-14.3-7.2-14.3-15.5v-2.2c-1.2-1.2-2.9-1.9-4.6-1.9-1.7 0-3.4.699-4.6 1.899v2.5c0 4.3-1.7 8.2-4.7 11.101-3 2.8-6.9 4.3-11.1 4.1C6.3 46.6 0 39.8 0 31.5v-5.9c0-1.399.9-3.7 2-5.1l11.4-19C14 .6 15 0 16.1 0h6v2h-6c-.4 0-.8.2-1 .5L3.7 21.6s0 .1-.1.1c-.3.4-.6.9-.9 1.4.7-.4 1.6-.6 2.5-.6h19.7c2.5 0 4.7 1.8 5.1 4.3 1.4-.899 3-1.399 4.7-1.399s3.3.5 4.7 1.399c.5-2.4 2.6-4.3 5.1-4.3h19.7c.899 0 1.7.2 2.5.6-.2-.5-.5-1-.9-1.4 0 0 0-.1-.1-.1L54.4 2.5c-.2-.3-.6-.5-1-.5h-6V0h6c1.1 0 2.1.6 2.699 1.5l11.4 19c1.1 1.4 2 3.7 2 5.1v6.1c0 4.3-1.7 8.2-4.7 11.1C62 45.6 58.3 47 54.4 47zm-9.8-22.5c-1.8 0-3.199 1.4-3.199 3.2v3.8C41.4 38.6 47 44.7 53.8 45c3.601.2 7-1.1 9.601-3.6 2.6-2.5 4.1-6 4.1-9.7v-4c0-1.8-1.4-3.2-3.2-3.2H44.6zm-39.4 0c-1.8 0-3.2 1.4-3.2 3.2v3.8C2 38.6 7.6 44.7 14.4 45c3.6.2 7-1.1 9.6-3.6s4.1-6 4.1-9.7v-4c0-1.8-1.4-3.2-3.2-3.2H5.2zm49.2 16.9h-.5c-5-.2-9-4.7-9-9.9h2c0 4.2 3.199 7.7 7.1 7.9h.4v2zm-39.3 0h-.5c-5-.2-9-4.7-9-9.9h2c0 4.2 3.2 7.7 7.1 7.9h.4v2z"/></svg>