<svg xmlns="http://www.w3.org/2000/svg" width="262.076" height="67.221"><path fill="#FFF" d="M3.13 65.92v.408l-.136.136h-.136l-.272-.136C.136 64.015 0 63.878 0 60.34c0-3.539.136-3.675 2.586-5.989l.272-.136h.136l.136.136v.409C.952 56.801.816 56.937.816 60.34s.137 3.538 2.314 5.58M8.983 64.363l-.135.136h-.681l-.137-.136-3.402-8.847v-.408l.137-.136h.407l.137.136 3.13 8.302h.137l3.13-8.302.135-.136h.409l.136.136v.408zM14.292 56.605h-.544l-.137-.136v-.817l.137-.136h.544l.136.136v.817l-.136.136zm0 7.895h-.544l-.137-.137v-6.532l.137-.137h.544l.136.137v6.532l-.136.137zM19.464 57.694l.136.136v.408l-.136.137h-.681c-1.361 0-1.905.952-1.905 2.313v3.675l-.136.136h-.545l-.136-.136V57.83l.136-.136h.409l.136.136.136.817h.136c.408-.681 1.089-.953 1.906-.953h.544zM24.092 64.5h-.953c-.952 0-1.633-.544-1.633-1.497v-4.491l-.136-.137h-1.089l-.136-.137v-.407l.136-.137h1.089l.136-.136v-1.225l.136-.137h.545l.136.137v1.225l.136.136h1.633l.136.137v.407l-.136.137h-1.633l-.136.137v4.491c0 .544.272.815.816.815h.953l.136.138v.407l-.136.137zM25.59 57.694h.544l.137.136v4.22c0 1.36.68 1.905 1.632 1.905 1.498 0 2.178-.953 2.178-2.449V57.83l.136-.136h.545l.136.136v6.533l-.136.136h-.408l-.137-.136-.136-.815h-.136c-.408.68-1.225 1.088-2.177 1.088-1.362 0-2.314-.816-2.314-2.586v-4.22l.136-.136zM37.432 64.499h-.409l-.136-.136-.136-.68h-.136c-.272.407-.817.952-2.177.952-1.498 0-2.314-.816-2.314-2.042 0-1.496 1.088-2.178 2.858-2.178.816 0 1.633.137 1.633.137l.136-.137v-.408c0-1.225-.408-1.769-1.769-1.769s-1.77.68-1.77 1.36l-.136.137h-.544l-.136-.137c0-1.089.816-2.041 2.586-2.041 2.041 0 2.586.952 2.586 2.449v4.355l-.136.138zm-.681-3.13l-.136-.136s-.68-.136-1.497-.136c-1.634 0-2.178.544-2.178 1.496 0 .817.409 1.361 1.633 1.361 1.497 0 2.178-1.089 2.178-2.042v-.543zM39.746 64.5h-.544l-.137-.137v-9.255l.137-.136h.544l.136.136v9.255zM42.196 64.5h-.544l-.136-.137v-9.255l.136-.136h.544l.137.136v9.255zM46.96 64.227c-.544 1.497-.953 2.313-2.45 2.313h-.272l-.136-.137v-.408l.136-.136h.272c.953 0 1.225-.68 1.361-1.089v-.27l-2.313-6.262v-.407l.136-.137h.408l.136.137 2.041 5.716h.137l2.041-5.716.136-.137h.409l.136.137v.407l-2.178 5.989zM54.855 63.546h-.136v3.539l-.136.136h-.545l-.136-.136V57.83l.136-.137h.409l.136.137.136.815h.136c.272-.544.952-1.089 2.177-1.089 1.906 0 2.858 1.498 2.858 3.539 0 2.042-.952 3.539-2.858 3.539-1.225.001-1.905-.543-2.177-1.088m4.219-2.45c0-1.905-.817-2.857-2.178-2.857s-2.177.952-2.177 2.857c0 1.906.816 2.858 2.177 2.858 1.361.001 2.178-.952 2.178-2.858M64.519 57.694l.136.136v.408l-.136.137h-.681c-1.361 0-1.905.952-1.905 2.313v3.675l-.136.136h-.545l-.135-.136V57.83l.135-.136h.409l.136.136.136.817h.136c.408-.681 1.089-.953 1.906-.953h.544zM65.881 61.369l-.136.137c0 .816.544 2.449 2.313 2.449 1.089 0 1.633-.544 1.906-1.36l.136-.137h.544l.136.137c-.136.816-.816 2.041-2.722 2.041-2.177 0-3.13-1.633-3.13-3.539v-.271c0-1.905 1.089-3.268 2.994-3.268 1.906 0 2.994 1.362 2.994 3.268v.407l-.136.137h-4.899zm4.219-.817c0-.953-.544-2.313-2.178-2.313-1.633 0-2.177 1.36-2.177 2.313l.136.136h4.083l.136-.136zM74.32 64.635c-1.633 0-2.586-.953-2.586-2.178l.136-.136h.545l.136.136c0 .816.544 1.497 1.769 1.497 1.361 0 1.77-.544 1.77-1.225 0-1.09-.681-1.225-2.042-1.498-1.361-.271-2.178-.815-2.178-1.904 0-.953.817-1.771 2.314-1.771 1.361 0 2.45.545 2.45 1.906l-.136.136h-.545l-.136-.136c0-.681-.408-1.225-1.633-1.225-.953 0-1.497.407-1.497 1.089 0 .953.817 1.089 2.177 1.36 1.362.272 2.042.817 2.042 2.042 0 1.09-.816 1.907-2.586 1.907M78.676 61.369l-.136.137c0 .816.544 2.449 2.313 2.449 1.089 0 1.633-.544 1.906-1.36l.136-.137h.544l.137.137c-.137.816-.817 2.041-2.723 2.041-2.177 0-3.13-1.633-3.13-3.539v-.271c0-1.905 1.089-3.268 2.994-3.268 1.906 0 2.994 1.362 2.994 3.268v.407l-.135.137h-4.9zm4.219-.817c0-.953-.544-2.313-2.178-2.313-1.633 0-2.177 1.36-2.177 2.313l.136.136h4.083l.136-.136zM90.381 64.5h-.544l-.137-.137V60.28c0-1.36-.68-2.042-1.769-2.042-1.497 0-2.177.953-2.177 2.45v3.675l-.137.137h-.544l-.136-.137v-6.532l.136-.137h.409l.135.137.137.815h.136c.408-.68 1.224-1.088 2.177-1.088 1.498 0 2.45.953 2.45 2.722v4.083l-.136.137zM95.282 64.5h-.953c-.952 0-1.633-.544-1.633-1.497v-4.491l-.136-.137h-1.089l-.136-.137v-.407l.136-.137h1.089l.136-.136v-1.225l.136-.137h.545l.136.137v1.225l.136.136h1.633l.136.137v.407l-.136.137h-1.633l-.136.137v4.491c0 .544.272.815.816.815h.953l.136.138v.407l-.136.137zM98.004 64.908l-.544.68-.272.136h-.272v-.136l.544-.817v-.136l-.136-.135h-.136l-.137-.136v-1.09l.137-.136h.816l.137.136V64.5zM107.668 60.143h-3.13l-.136.137v4.083l-.137.137h-.544l-.136-.137v-9.255l.136-.137h3.947c2.042 0 2.994.817 2.994 2.586 0 1.771-.952 2.586-2.994 2.586m.136-4.49h-3.266l-.136.136v3.539l.136.136h3.13c1.361 0 2.178-.408 2.178-1.906s-.817-1.905-2.042-1.905M117.197 64.5h-.544l-.137-.137V60.28c0-1.36-.68-2.042-1.769-2.042-1.497 0-2.178.953-2.178 2.45v3.675l-.136.137h-.544l-.136-.137v-9.255l.136-.136h.544l.136.136v3.538h.136c.409-.68 1.225-1.088 2.178-1.088 1.497 0 2.45.953 2.45 2.722v4.083l-.136.137zM121.825 64.227c-.544 1.497-.953 2.313-2.45 2.313h-.272l-.136-.137v-.408l.136-.136h.272c.952 0 1.225-.68 1.361-1.089v-.27l-2.314-6.262v-.407l.136-.137h.409l.136.137 2.041 5.716h.137l2.041-5.716.136-.137h.409l.135.137v.407l-2.177 5.989zM127.406 64.635c-1.633 0-2.586-.953-2.586-2.178l.136-.136h.545l.136.136c0 .816.544 1.497 1.769 1.497 1.361 0 1.77-.544 1.77-1.225 0-1.09-.681-1.225-2.042-1.498-1.361-.271-2.178-.815-2.178-1.904 0-.953.817-1.771 2.314-1.771 1.361 0 2.45.545 2.45 1.906l-.136.136h-.545l-.136-.136c0-.681-.408-1.225-1.633-1.225-.953 0-1.497.407-1.497 1.089 0 .953.817 1.089 2.177 1.36 1.362.272 2.042.817 2.042 2.042 0 1.09-.816 1.907-2.586 1.907M131.898 56.605h-.545l-.137-.136v-.817l.137-.136h.545l.136.136v.817l-.136.136zm0 7.895h-.545l-.137-.137v-6.532l.137-.137h.545l.136.137v6.532l-.136.137zM136.39 63.955c1.361 0 1.905-.815 2.042-1.633l.135-.136h.545l.137.136c-.137 1.361-1.226 2.313-2.858 2.313-1.77 0-3.13-1.089-3.13-3.538 0-2.45 1.36-3.539 3.13-3.539 1.633 0 2.722.952 2.858 2.313l-.137.136h-.545l-.135-.136c-.137-.815-.681-1.633-2.042-1.633s-2.313.952-2.313 2.858c-.001 1.905.951 2.859 2.313 2.859M145.373 64.499h-.408l-.137-.136-.136-.68h-.136c-.272.407-.817.952-2.178.952-1.497 0-2.313-.816-2.313-2.042 0-1.496 1.088-2.178 2.858-2.178.815 0 1.633.137 1.633.137l.136-.137v-.408c0-1.225-.408-1.769-1.769-1.769s-1.771.68-1.771 1.36l-.136.137h-.544l-.137-.137c0-1.089.816-2.041 2.587-2.041 2.041 0 2.586.952 2.586 2.449v4.355l-.135.138zm-.681-3.13l-.136-.136s-.681-.136-1.497-.136c-1.634 0-2.178.544-2.178 1.496 0 .817.408 1.361 1.634 1.361 1.497 0 2.177-1.089 2.177-2.042v-.543zM147.688 64.5h-.544l-.137-.137v-9.255l.137-.136h.544l.135.136v9.255zM150.138 64.5h-.544l-.137-.137v-9.255l.137-.136h.544l.135.136v9.255zM154.901 64.227c-.544 1.497-.953 2.313-2.45 2.313h-.271l-.137-.137v-.408l.137-.136h.271c.953 0 1.226-.68 1.361-1.089v-.27l-2.313-6.262v-.407l.136-.137h.408l.137.137 2.041 5.716h.137l2.041-5.716.136-.137h.409l.136.137v.407l-2.179 5.989zM162.524 56.605h-.544l-.137-.136v-.817l.137-.136h.544l.136.136v.817l-.136.136zm0 7.895h-.544l-.137-.137v-6.532l.137-.137h.544l.136.137v6.532l-.136.137zM169.738 64.5h-.544l-.137-.137V60.28c0-1.36-.681-2.042-1.77-2.042-1.497 0-2.177.953-2.177 2.45v3.675l-.138.137h-.544l-.136-.137v-6.532l.136-.137h.409l.135.137.138.815h.136c.408-.68 1.224-1.088 2.177-1.088 1.498 0 2.45.953 2.45 2.722v4.083l-.135.137zM174.366 64.363l-.136.136h-.681l-.136-.136-2.586-6.125v-.408l.137-.136h.408l.136.136 2.314 5.717h.136l2.313-5.717.137-.136h.408l.136.136v.408zM178.858 56.605h-.545l-.136-.136v-.817l.136-.136h.545l.136.136v.817l-.136.136zm0 7.895h-.545l-.136-.137v-6.532l.136-.137h.545l.136.137v6.532l-.136.137zM182.806 64.635c-1.633 0-2.586-.953-2.586-2.178l.136-.136h.544l.137.136c0 .816.545 1.497 1.77 1.497 1.361 0 1.769-.544 1.769-1.225 0-1.09-.68-1.225-2.041-1.498-1.36-.271-2.178-.815-2.178-1.904 0-.953.817-1.771 2.314-1.771 1.36 0 2.449.545 2.449 1.906l-.137.136h-.544l-.136-.136c0-.681-.408-1.225-1.633-1.225-.953 0-1.497.407-1.497 1.089 0 .953.815 1.089 2.177 1.36 1.361.272 2.042.817 2.042 2.042 0 1.09-.818 1.907-2.586 1.907M187.298 56.605h-.545l-.137-.136v-.817l.137-.136h.545l.136.136v.817l-.136.136zm0 7.895h-.545l-.137-.137v-6.532l.137-.137h.545l.136.137v6.532l-.136.137zM195.056 61.096c0 2.042-.953 3.539-2.858 3.539-1.225 0-1.905-.544-2.178-1.089h-.136l-.136.817-.136.136h-.409l-.137-.136v-9.256l.137-.137h.545l.136.137v3.538h.136c.272-.544.953-1.089 2.178-1.089 1.905.001 2.858 1.499 2.858 3.54m-5.172 0c0 1.906.816 2.858 2.177 2.858 1.362 0 2.179-.952 2.179-2.858 0-1.905-.816-2.857-2.179-2.857-1.361 0-2.177.952-2.177 2.857M196.962 64.5h-.545l-.136-.137v-9.255l.136-.136h.545l.136.136v9.255zM199.276 61.369l-.136.137c0 .816.544 2.449 2.312 2.449 1.089 0 1.633-.544 1.906-1.36l.136-.137h.544l.136.137c-.136.816-.815 2.041-2.722 2.041-2.177 0-3.13-1.633-3.13-3.539v-.271c0-1.905 1.089-3.268 2.994-3.268 1.906 0 2.994 1.362 2.994 3.268v.407l-.137.137h-4.897zm4.219-.817c0-.953-.544-2.313-2.178-2.313-1.633 0-2.177 1.36-2.177 2.313l.136.136h4.083l.136-.136zM205.81 54.76v-.409l.136-.135h.137l.271.135c2.45 2.314 2.586 2.45 2.586 5.989s-.136 3.675-2.586 5.988l-.271.137h-.137l-.136-.137v-.408c2.178-2.041 2.314-2.178 2.314-5.58 0-3.403-.137-3.539-2.314-5.58M17.638 38.359l.36-.36h4.319l.361.36c-.721 5.04-4.68 7.919-10.439 7.919C4.32 46.278 0 40.878 0 33.318 0 25.759 4.32 20.36 12.239 20.36c5.759 0 9.718 2.88 10.439 7.56l-.361.359h-4.319l-.36-.359c-.72-2.161-2.52-3.24-5.399-3.24-5.04 0-7.2 3.599-7.2 8.638 0 5.041 2.16 8.64 7.2 8.64 2.879 0 4.679-1.08 5.399-3.599M45.717 45.917h-3.24l-.36-.359-1.799-4.681-.721-.359H30.6l-.72.359-1.8 4.681-.36.359h-3.24l-.361-.359v-3.601l8.28-20.877.359-.36h4.68l.36.36 8.279 20.877v3.601l-.36.359zM35.278 27.2h-.36l-3.24 8.639.36.36h6.12l.36-.36-3.24-8.639zM65.158 35.479v.36l4.679 6.119v3.6l-.36.359h-2.16l-.72-.359-7.199-9.359-.72-.359h-3.599l-.36.359v9.359l-.36.359H50.04l-.361-.359V21.081l.361-.36h11.878c5.04 0 8.639 2.519 8.639 7.559 0 3.959-2.52 6.479-5.399 7.199m-3.24-10.439h-6.839l-.36.36v5.759l.36.36h6.839c2.16 0 3.6-.72 3.6-3.239 0-2.52-1.44-3.24-3.6-3.24M75.24 20.721h5.039l.72.36 9.719 16.558h.36V21.081l.36-.36h4.319l.36.36v24.477l-.36.359h-5.039l-.72-.359L80.279 29h-.36v16.558l-.36.359H75.24l-.36-.359V21.081zM119.158 45.917H102.24l-.36-.36V21.081l.36-.36h16.918l.36.36v3.6l-.36.36h-11.879l-.36.358v5.04l.36.361h11.159l.36.36v3.598l-.36.361h-11.159l-.36.361v5.759l.36.359h11.879l.36.36v3.599zM133.559 35.479v10.079l-.361.359h-1.44l-.36-.359V35.479l-7.919-13.318v-1.08l.36-.36h.72l.72.36 6.839 11.878h.72l6.839-11.878.72-.36h.72l.361.36v1.08zM163.437 45.917h-3.24l-.359-.359-1.8-4.681-.721-.359h-8.998l-.72.359-1.8 4.681-.36.359H142.2l-.36-.359v-3.601l8.279-20.877.359-.36h4.68l.36.36 8.279 20.877v3.601l-.36.359zM152.998 27.2h-.36l-3.24 8.639.361.36h6.119l.359-.36-3.239-8.639zM182.877 35.479v.36l4.68 6.119v3.6l-.36.359h-2.16l-.72-.359-7.199-9.359-.72-.359h-3.6l-.359.359v9.359l-.36.359h-4.318l-.36-.359V21.081l.36-.36h11.878c5.039 0 8.639 2.519 8.639 7.559-.002 3.959-2.522 6.479-5.401 7.199m-3.239-10.439h-6.84l-.359.36v5.759l.359.36h6.84c2.159 0 3.6-.72 3.6-3.239-.001-2.52-1.441-3.24-3.6-3.24M209.877 45.917H192.96l-.36-.36V21.081l.36-.36h16.917l.359.36v3.6l-.359.36h-11.879l-.359.358v5.04l.359.361h11.158l.361.36v3.598l-.361.361h-11.158l-.359.361v5.759l.359.359h11.879l.359.36v3.599zM215.639 20.721h5.038l.72.36 9.719 16.558h.361V21.081l.359-.36h4.319l.361.36v24.477l-.361.359h-5.039l-.72-.359L220.677 29h-.36v16.558l-.36.359h-4.318l-.361-.359V21.081zM261.716 45.917h-3.24l-.359-.359-1.8-4.681-.721-.359h-8.998l-.72.359-1.8 4.681-.36.359h-3.239l-.36-.359v-3.601l8.279-20.877.359-.36h4.68l.36.36 8.279 20.877v3.601l-.36.359zM251.277 27.2h-.36l-3.24 8.639.361.36h6.119l.359-.36-3.239-8.639zM9.875 11.685H8.394l-.165-.164-.823-2.141-.329-.165H2.962l-.328.165-.824 2.14-.164.164H.165L0 11.521V9.875L3.786.33 3.95.165h2.139l.164.165 3.785 9.545v1.646l-.163.164zM5.102 3.126h-.165l-1.481 3.95.165.165h2.798l.164-.165-1.481-3.95zM13.496 11.685h-1.975l-.164-.165V.33l.164-.165h1.975l.165.165v11.19zM23.042 8.229l-.165.165h-5.102l-.164.164c0 .329.329 1.317 1.645 1.317.494 0 .988-.165 1.152-.494l.165-.165h1.975l.164.165c-.164.988-.987 2.469-3.456 2.469-2.797 0-4.114-1.975-4.114-4.279s1.317-4.28 3.95-4.28 3.95 1.976 3.95 4.28v.658zm-2.469-1.646c0-.165-.165-1.316-1.481-1.316-1.317 0-1.481 1.151-1.481 1.316l.164.165h2.633l.165-.165zM26.828 12.014c0 1.975-.988 2.632-2.798 2.632h-.988l-.164-.164v-1.646l.164-.164h.823c.494 0 .659-.165.659-.658V3.62l.164-.164h1.975l.165.164v8.394zm-.165-9.875h-1.975l-.164-.165V.329l.164-.165h1.975l.165.165v1.645l-.165.165zM35.386 11.685h-1.81l-.165-.164-.164-.33h-.165s-.658.659-1.811.659c-1.81 0-2.961-.988-2.961-2.634 0-2.468 2.303-2.798 3.62-2.798.658 0 1.152.165 1.152.165l.165-.165v-.165c0-.823-.165-.987-1.152-.987-.494 0-.988 0-1.153.493l-.164.165h-1.975l-.164-.164c0-.987.822-2.468 3.456-2.468 2.633 0 3.456 1.316 3.456 3.785v4.444l-.165.164zm-2.304-3.456s-.329-.165-.987-.165c-.988 0-1.482.33-1.482.988 0 .493.329.823 1.153.823.822 0 1.481-.494 1.481-1.152v-.329l-.165-.165zM44.932 11.685h-1.975l-.165-.165V6.748c0-.823-.329-1.481-1.316-1.481-1.152 0-1.81.658-1.81 2.139v4.114l-.165.165h-1.975l-.164-.165V3.621l.164-.165h1.81l.165.165.165.494h.164c.329-.329.988-.824 2.14-.824 1.975 0 3.127 1.317 3.127 3.292v4.937l-.165.165zM50.034 3.291c1.481 0 2.14.823 2.14.823h.164V.329l.165-.164h1.975l.164.164V11.52l-.164.165h-1.81l-.165-.165-.165-.494h-.164s-.659.823-2.14.823c-1.975 0-3.62-1.646-3.62-4.279.001-2.633 1.646-4.279 3.62-4.279m.494 6.583c1.316 0 1.81-.987 1.81-2.304 0-1.317-.494-2.304-1.81-2.304s-1.811.987-1.811 2.304c0 1.317.495 2.304 1.811 2.304M61.885 5.431h-1.152c-1.317 0-1.81.659-1.81 2.14v3.949l-.164.165h-1.976l-.164-.165V3.621l.164-.165h1.81l.166.165.164.494h.164s.329-.659 1.811-.659h.987l.165.165v1.645l-.165.165zM66.494 11.849c-2.469 0-4.114-1.646-4.114-4.279s1.645-4.279 4.114-4.279c2.468 0 4.114 1.646 4.114 4.279s-1.646 4.279-4.114 4.279m0-6.583c-1.152 0-1.811.823-1.811 2.304s.659 2.304 1.811 2.304 1.81-.823 1.81-2.304-.658-2.304-1.81-2.304M86.244 11.685h-1.481l-.165-.165-.164-.822h-.165c-.329.328-1.152 1.152-2.962 1.152-3.292 0-5.431-2.469-5.431-5.925S78.015 0 81.472 0c3.291 0 4.607 1.81 4.937 3.456l-.165.165h-1.975l-.164-.165c-.329-.658-.823-1.481-2.633-1.481-2.14 0-3.292 1.646-3.292 3.95 0 2.304 1.152 3.949 3.292 3.949 1.81 0 2.633-.987 2.633-2.303l-.165-.165h-2.798l-.164-.164V5.596l.164-.165h5.102l.165.165v5.924l-.165.165zM91.182 11.685h-2.304l-.165-.165V9.381l.165-.165h2.304l.165.165v2.139zM100.07 11.685h-1.975l-.165-.165V.33l.165-.165h1.975l.165.165v11.19zM110.109 11.685h-1.975l-.164-.164V6.748c0-.823-.329-1.481-1.317-1.481-1.152 0-1.81.658-1.81 2.139v4.115l-.165.164h-1.975l-.164-.164v-7.9l.164-.164h1.811l.164.164.165.494h.164c.33-.329.988-.823 2.14-.823 1.975 0 3.127 1.316 3.127 3.291v4.938l-.165.164zm-4.937-10.039c-.329 0-.494.165-.494.658l-.164.165h-.823l-.165-.165c0-1.316.823-1.974 1.811-1.974 1.316 0 1.645 1.151 2.304 1.151.329 0 .493-.164.493-.658l.165-.164h.823l.164.164c0 1.317-.822 1.975-1.81 1.975-1.317-.001-1.645-1.152-2.304-1.152M118.668 11.685h-1.81l-.165-.164-.164-.33h-.165s-.659.659-1.811.659c-1.81 0-2.961-.988-2.961-2.634 0-2.468 2.303-2.798 3.62-2.798.658 0 1.152.165 1.152.165l.165-.165v-.165c0-.823-.165-.987-1.153-.987-.493 0-.987 0-1.152.493l-.164.165h-1.975l-.164-.165c0-.987.822-2.468 3.455-2.468 2.634 0 3.456 1.316 3.456 3.785v4.444l-.164.165zm-2.963-9.381l-.329.165h-1.481l-.164-.165v-.329L115.376.33l.329-.165h1.646l.165.165v.329l-1.811 1.645zm.659 5.925s-.329-.165-.988-.165c-.987 0-1.481.33-1.481.988 0 .493.329.823 1.153.823.822 0 1.481-.494 1.481-1.152v-.329l-.165-.165zM125.91 5.431h-1.152c-1.317 0-1.81.659-1.81 2.14v3.949l-.165.165h-1.975l-.164-.165V3.621l.164-.165h1.81l.165.165.165.494h.164s.329-.659 1.811-.659h.987l.165.165v1.645l-.165.165zM132.658 5.431h-1.152c-1.316 0-1.81.659-1.81 2.14v3.949l-.165.165h-1.975l-.165-.165V3.621l.165-.165h1.81l.165.165.165.494h.164s.329-.659 1.811-.659h.987l.165.165v1.645l-.165.165zM136.279 2.14h-1.975l-.164-.165V.33l.164-.165h1.975l.165.165v1.645l-.165.165zm0 9.545h-1.975l-.164-.165V3.621l.164-.165h1.975l.165.165v7.899l-.165.165zM141.547 9.216c0 .329.164.494.493.494h1.481l.164.164v1.646l-.164.165h-1.481c-1.481 0-2.798-.659-2.798-2.469V5.595l-.165-.164h-1.151l-.165-.165V3.621l.165-.165h1.151l.165-.165V1.81l.164-.164h1.976l.165.164v1.481l.164.165h1.811l.164.165v1.645l-.164.165h-1.811l-.164.164v3.621zM145.332 3.456h1.975l.165.165v4.772c0 .823.329 1.481 1.316 1.481 1.152 0 1.646-.823 1.646-1.975V3.621l.163-.165h1.976l.165.165v7.899l-.165.165h-1.811l-.165-.165-.163-.494h-.165s-.494.823-1.976.823c-1.975 0-3.127-1.316-3.127-3.291V3.621l.166-.165z"/></svg>