<svg xmlns="http://www.w3.org/2000/svg" width="270" height="70"><path fill="#FFF" d="M33.66 67.31v.408l-.136.137h-.136l-.272-.137c-2.45-2.312-2.586-2.449-2.586-5.988s.136-3.674 2.586-5.988l.272-.137h.136l.136.137v.408c-2.178 2.041-2.314 2.178-2.314 5.58s.136 3.539 2.314 5.58M39.513 65.753l-.136.135h-.681l-.136-.135-3.402-8.848v-.408l.136-.135h.408l.136.135 3.131 8.303h.136l3.13-8.303.136-.135h.408l.136.135v.408zM44.822 57.995h-.545l-.136-.137v-.816l.136-.137h.545l.136.137v.816l-.136.137zm0 7.895h-.545l-.136-.137V59.22l.136-.137h.545l.136.137v6.533l-.136.137zM49.994 59.083l.136.137v.408l-.136.137h-.681c-1.361 0-1.905.951-1.905 2.312v3.676l-.136.135h-.545l-.136-.135V59.22l.136-.137h.409l.136.137.136.816h.136c.408-.68 1.089-.953 1.906-.953h.544zM54.622 65.89h-.953c-.952 0-1.633-.545-1.633-1.498v-4.49l-.136-.137h-1.089l-.136-.137v-.408l.136-.137H51.9l.136-.135v-1.225l.136-.137h.545l.136.137v1.225l.136.135h1.633l.136.137v.408l-.136.137h-1.633l-.136.137v4.49c0 .545.272.816.816.816h.953l.136.137v.408l-.136.137zM56.12 59.083h.544l.137.137v4.219c0 1.361.68 1.906 1.632 1.906 1.498 0 2.178-.953 2.178-2.449V59.22l.136-.137h.545l.136.137v6.533l-.136.135h-.408l-.137-.135-.136-.816h-.136c-.408.68-1.225 1.088-2.177 1.088-1.362 0-2.314-.816-2.314-2.586V59.22l.136-.137zM67.962 65.888h-.409l-.136-.135-.136-.68h-.136c-.272.406-.817.951-2.177.951-1.498 0-2.314-.816-2.314-2.041 0-1.496 1.088-2.178 2.858-2.178.816 0 1.633.137 1.633.137l.136-.137v-.408c0-1.225-.408-1.77-1.769-1.77s-1.77.68-1.77 1.361l-.136.137h-.544l-.136-.137c0-1.09.816-2.041 2.586-2.041 2.041 0 2.586.951 2.586 2.449v4.355l-.136.137zm-.681-3.129l-.136-.137s-.68-.135-1.497-.135c-1.634 0-2.178.543-2.178 1.496 0 .816.409 1.361 1.633 1.361 1.497 0 2.178-1.09 2.178-2.043v-.542zM70.276 65.89h-.544l-.137-.137v-9.256l.137-.135h.544l.136.135v9.256zM72.726 65.89h-.544l-.137-.137v-9.256l.137-.135h.544l.136.135v9.256zM77.49 65.616c-.544 1.498-.953 2.314-2.45 2.314h-.272l-.136-.137v-.408l.136-.137h.272c.953 0 1.225-.68 1.361-1.088v-.27l-2.313-6.262v-.408l.136-.137h.408l.136.137 2.041 5.717h.137l2.041-5.717.136-.137h.409l.136.137v.408l-2.178 5.988zM85.385 64.937h-.136v3.539l-.136.135h-.545l-.136-.135V59.22l.136-.137h.409l.136.137.136.816h.136c.272-.545.952-1.09 2.177-1.09 1.906 0 2.858 1.498 2.858 3.539 0 2.043-.952 3.539-2.858 3.539-1.225 0-1.905-.543-2.177-1.087m4.219-2.452c0-1.904-.817-2.857-2.178-2.857s-2.177.953-2.177 2.857c0 1.906.816 2.859 2.177 2.859 1.361.001 2.178-.952 2.178-2.859M95.049 59.083l.136.137v.408l-.136.137h-.681c-1.361 0-1.905.951-1.905 2.312v3.676l-.136.135h-.545l-.136-.135V59.22l.136-.137h.409l.136.137.136.816h.136c.408-.68 1.089-.953 1.906-.953h.544zM96.411 62.759l-.136.137c0 .816.544 2.449 2.313 2.449 1.089 0 1.633-.545 1.906-1.361l.136-.137h.544l.136.137c-.136.816-.816 2.041-2.722 2.041-2.177 0-3.13-1.633-3.13-3.539v-.271c0-1.904 1.089-3.268 2.994-3.268 1.906 0 2.994 1.363 2.994 3.268v.408l-.136.137h-4.899zm4.219-.817c0-.953-.544-2.314-2.178-2.314-1.633 0-2.177 1.361-2.177 2.314l.136.135h4.083l.136-.135zM104.85 66.024c-1.633 0-2.586-.953-2.586-2.178l.136-.135h.545l.136.135c0 .816.544 1.498 1.769 1.498 1.361 0 1.77-.545 1.77-1.225 0-1.09-.681-1.225-2.042-1.498-1.361-.271-2.178-.816-2.178-1.904 0-.953.817-1.771 2.314-1.771 1.361 0 2.45.545 2.45 1.906l-.136.137h-.545l-.136-.137c0-.68-.408-1.225-1.633-1.225-.953 0-1.497.408-1.497 1.09 0 .953.817 1.088 2.177 1.359 1.362.273 2.042.818 2.042 2.043 0 1.089-.816 1.905-2.586 1.905M109.206 62.759l-.136.137c0 .816.544 2.449 2.313 2.449 1.089 0 1.633-.545 1.906-1.361l.136-.137h.544l.136.137c-.136.816-.816 2.041-2.722 2.041-2.177 0-3.13-1.633-3.13-3.539v-.271c0-1.904 1.089-3.268 2.994-3.268 1.906 0 2.994 1.363 2.994 3.268v.408l-.136.137h-4.899zm4.219-.817c0-.953-.544-2.314-2.178-2.314-1.633 0-2.177 1.361-2.177 2.314l.136.135h4.083l.136-.135zM120.911 65.89h-.544l-.137-.137v-4.084c0-1.359-.68-2.041-1.769-2.041-1.497 0-2.177.953-2.177 2.449v3.676l-.137.137h-.544l-.136-.137V59.22l.136-.137h.408l.136.137.137.816h.135c.409-.68 1.225-1.088 2.178-1.088 1.498 0 2.45.953 2.45 2.721v4.084l-.136.137zM125.812 65.89h-.953c-.952 0-1.633-.545-1.633-1.498v-4.49l-.136-.137H122l-.136-.137v-.408l.136-.137h1.089l.136-.135v-1.225l.136-.137h.545l.136.137v1.225l.136.135h1.633l.136.137v.408l-.136.137h-1.633l-.136.137v4.49c0 .545.272.816.816.816h.953l.136.137v.408l-.135.137zM128.534 66.298l-.544.68-.272.136h-.273v-.136l.545-.817v-.137l-.137-.134h-.135l-.137-.137v-1.09l.137-.135h.816l.136.135v1.227zM138.198 61.532h-3.13l-.137.137v4.084l-.137.137h-.544l-.136-.137v-9.256l.136-.137h3.947c2.042 0 2.994.818 2.994 2.586.001 1.772-.951 2.586-2.993 2.586m.136-4.49h-3.266l-.137.137v3.539l.137.135h3.13c1.36 0 2.178-.408 2.178-1.906 0-1.497-.817-1.905-2.042-1.905M147.727 65.89h-.544l-.137-.137v-4.084c0-1.359-.681-2.041-1.77-2.041-1.497 0-2.178.953-2.178 2.449v3.676l-.136.137h-.544l-.137-.137v-9.256l.137-.135h.544l.136.135v3.539h.136c.409-.68 1.226-1.088 2.179-1.088 1.496 0 2.449.953 2.449 2.721v4.084l-.135.137zM152.355 65.616c-.545 1.498-.953 2.314-2.45 2.314h-.272l-.136-.137v-.408l.136-.137h.272c.952 0 1.225-.68 1.36-1.088v-.27l-2.313-6.262v-.408l.136-.137h.409l.136.137 2.041 5.717h.137l2.041-5.717.137-.137h.409l.135.137v.408l-2.178 5.988zM157.936 66.024c-1.633 0-2.586-.953-2.586-2.178l.136-.135h.545l.137.135c0 .816.544 1.498 1.769 1.498 1.361 0 1.771-.545 1.771-1.225 0-1.09-.682-1.225-2.042-1.498-1.361-.271-2.179-.816-2.179-1.904 0-.953.817-1.771 2.314-1.771 1.36 0 2.45.545 2.45 1.906l-.137.137h-.545l-.136-.137c0-.68-.408-1.225-1.633-1.225-.953 0-1.497.408-1.497 1.09 0 .953.816 1.088 2.177 1.359 1.362.273 2.042.818 2.042 2.043-.001 1.089-.816 1.905-2.586 1.905M162.428 57.995h-.544l-.137-.137v-.816l.137-.137h.544l.136.137v.816l-.136.137zm0 7.895h-.544l-.137-.137V59.22l.137-.137h.544l.136.137v6.533l-.136.137zM166.92 65.345c1.36 0 1.904-.816 2.042-1.633l.135-.137h.545l.136.137c-.136 1.361-1.225 2.312-2.857 2.312-1.771 0-3.131-1.088-3.131-3.537 0-2.451 1.36-3.539 3.131-3.539 1.633 0 2.722.951 2.857 2.312l-.136.137h-.545l-.135-.137c-.138-.814-.682-1.633-2.042-1.633-1.361 0-2.314.953-2.314 2.859-.001 1.906.953 2.859 2.314 2.859M175.903 65.888h-.409l-.136-.135-.136-.68h-.137c-.271.406-.816.951-2.177.951-1.498 0-2.314-.816-2.314-2.041 0-1.496 1.089-2.178 2.857-2.178.817 0 1.634.137 1.634.137l.137-.137v-.408c0-1.225-.408-1.77-1.771-1.77-1.36 0-1.769.68-1.769 1.361l-.137.137h-.544l-.136-.137c0-1.09.816-2.041 2.585-2.041 2.042 0 2.587.951 2.587 2.449v4.355l-.134.137zm-.68-3.129l-.137-.137s-.68-.135-1.497-.135c-1.634 0-2.178.543-2.178 1.496 0 .816.409 1.361 1.633 1.361 1.498 0 2.179-1.09 2.179-2.043v-.542zM178.218 65.89h-.545l-.137-.137v-9.256l.137-.135h.545l.136.135v9.256zM180.668 65.89h-.545l-.137-.137v-9.256l.137-.135h.545l.136.135v9.256zM185.432 65.616c-.544 1.498-.953 2.314-2.45 2.314h-.272l-.136-.137v-.408l.136-.137h.272c.953 0 1.225-.68 1.36-1.088v-.27l-2.312-6.262v-.408l.135-.137h.409l.136.137 2.041 5.717h.138l2.04-5.717.137-.137h.409l.136.137v.408l-2.179 5.988zM193.054 57.995h-.544l-.136-.137v-.816l.136-.137h.544l.136.137v.816l-.136.137zm0 7.895h-.544l-.136-.137V59.22l.136-.137h.544l.136.137v6.533l-.136.137zM200.268 65.89h-.544l-.136-.137v-4.084c0-1.359-.682-2.041-1.771-2.041-1.497 0-2.177.953-2.177 2.449v3.676l-.137.137h-.544l-.137-.137V59.22l.137-.137h.408l.136.137.137.816h.136c.408-.68 1.225-1.088 2.177-1.088 1.497 0 2.45.953 2.45 2.721v4.084l-.135.137zM204.896 65.753l-.136.135h-.681l-.136-.135-2.586-6.125v-.408l.137-.137h.408l.136.137 2.314 5.717h.136l2.313-5.717.137-.137h.408l.136.137v.408zM209.389 57.995h-.546l-.136-.137v-.816l.136-.137h.546l.136.137v.816l-.136.137zm0 7.895h-.546l-.136-.137V59.22l.136-.137h.546l.136.137v6.533l-.136.137zM213.336 66.024c-1.634 0-2.587-.953-2.587-2.178l.137-.135h.544l.136.135c0 .816.545 1.498 1.771 1.498 1.36 0 1.769-.545 1.769-1.225 0-1.09-.68-1.225-2.041-1.498-1.361-.271-2.178-.816-2.178-1.904 0-.953.816-1.771 2.313-1.771 1.361 0 2.449.545 2.449 1.906l-.136.137h-.544l-.137-.137c0-.68-.407-1.225-1.633-1.225-.953 0-1.497.408-1.497 1.09 0 .953.816 1.088 2.178 1.359 1.36.273 2.042.818 2.042 2.043 0 1.089-.818 1.905-2.586 1.905M217.827 57.995h-.544l-.137-.137v-.816l.137-.137h.544l.136.137v.816l-.136.137zm0 7.895h-.544l-.137-.137V59.22l.137-.137h.544l.136.137v6.533l-.136.137zM225.586 62.485c0 2.043-.953 3.539-2.859 3.539-1.224 0-1.905-.543-2.177-1.088h-.136l-.137.816-.136.137h-.409l-.136-.137v-9.256l.136-.137h.545l.137.137v3.539h.136c.271-.545.953-1.09 2.177-1.09 1.906.001 2.859 1.499 2.859 3.54m-5.172 0c0 1.906.815 2.859 2.177 2.859s2.178-.953 2.178-2.859c0-1.904-.816-2.857-2.178-2.857s-2.177.953-2.177 2.857M227.492 65.89h-.546l-.135-.137v-9.256l.135-.135h.546l.136.135v9.256zM229.806 62.759l-.136.137c0 .816.544 2.449 2.313 2.449 1.089 0 1.633-.545 1.905-1.361l.137-.137h.544l.136.137c-.136.816-.816 2.041-2.722 2.041-2.178 0-3.131-1.633-3.131-3.539v-.271c0-1.904 1.09-3.268 2.994-3.268 1.906 0 2.994 1.363 2.994 3.268v.408l-.136.137h-4.898zm4.219-.817c0-.953-.545-2.314-2.179-2.314-1.633 0-2.177 1.361-2.177 2.314l.136.135h4.083l.137-.135zM236.34 56.149v-.408l.136-.135h.136l.272.135c2.449 2.314 2.586 2.449 2.586 5.988s-.137 3.676-2.586 5.988l-.272.137h-.136l-.136-.137v-.407c2.178-2.041 2.313-2.178 2.313-5.58s-.135-3.54-2.313-5.581M21.6 39.749l.36-.361h4.319l.361.361c-.721 5.039-4.68 7.918-10.439 7.918-7.919 0-12.239-5.398-12.239-12.959 0-7.559 4.32-12.958 12.239-12.958 5.759 0 9.718 2.88 10.439 7.56l-.361.359H21.96l-.36-.359c-.72-2.16-2.52-3.239-5.399-3.239-5.04 0-7.2 3.599-7.2 8.638 0 5.041 2.16 8.641 7.2 8.641 2.879-.001 4.679-1.081 5.399-3.601M49.679 47.308h-3.24l-.36-.359-1.799-4.682-.721-.359h-8.998l-.72.359-1.8 4.682-.36.359h-3.239l-.361-.359v-3.602l8.28-20.877.359-.359h4.68l.36.359 8.279 20.877v3.602l-.36.359zM39.24 28.589h-.36l-3.24 8.639.36.361h6.12l.36-.361-3.24-8.639zM69.12 36.868v.361l4.679 6.119v3.6l-.36.359h-2.16l-.72-.359-7.199-9.359-.72-.359h-3.599l-.36.359v9.359l-.36.359h-4.319l-.361-.359V22.471l.361-.36H65.88c5.04 0 8.639 2.52 8.639 7.56 0 3.958-2.52 6.478-5.399 7.197M65.88 26.43h-6.839l-.36.36v5.759l.36.36h6.839c2.16 0 3.6-.721 3.6-3.239 0-2.521-1.44-3.24-3.6-3.24M79.202 22.11h5.039l.72.36 9.719 16.558h.36V22.47l.36-.36h4.319l.36.36v24.478l-.36.36H94.68l-.721-.36-9.718-16.558h-.36v16.558l-.36.36h-4.319l-.36-.36V22.47zM123.12 47.308h-16.918l-.36-.362V22.47l.36-.36h16.918l.359.36v3.6l-.359.361h-11.879l-.36.358v5.04l.36.36H122.4l.36.361v3.597l-.36.362h-11.159l-.36.361v5.758l.36.359h11.879l.359.362v3.597zM137.521 36.868v10.08l-.361.36h-1.44l-.36-.36v-10.08l-7.919-13.317v-1.08l.36-.361h.72l.72.361 6.839 11.878h.72l6.839-11.878.72-.361h.72l.36.361v1.08zM167.398 47.308h-3.24l-.359-.359-1.8-4.682-.721-.359h-8.998l-.72.359-1.8 4.682-.36.359h-3.239l-.36-.359v-3.602l8.279-20.877.359-.359h4.68l.36.359 8.279 20.877v3.602l-.36.359zM156.96 28.589h-.36l-3.24 8.639.361.361h6.119l.359-.361-3.239-8.639zM186.839 36.868v.361l4.68 6.119v3.6l-.36.359h-2.16l-.72-.359-7.199-9.359-.72-.359h-3.6l-.359.359v9.359l-.36.359h-4.318l-.36-.359V22.471l.36-.36H183.6c5.039 0 8.639 2.52 8.639 7.56-.001 3.958-2.521 6.478-5.4 7.197M183.6 26.43h-6.84l-.359.36v5.759l.359.36h6.84c2.159 0 3.6-.721 3.6-3.239-.001-2.521-1.441-3.24-3.6-3.24M213.839 47.308h-16.917l-.36-.362V22.47l.36-.36h16.917l.359.36v3.6l-.359.361H201.96l-.359.358v5.04l.359.36h11.158l.361.361v3.597l-.361.362H201.96l-.359.361v5.758l.359.359h11.879l.359.362v3.597zM219.601 22.11h5.038l.72.36 9.719 16.558h.36V22.47l.36-.36h4.319l.361.36v24.478l-.361.36h-5.039l-.72-.36-9.719-16.558h-.36v16.558l-.36.36h-4.318l-.361-.36V22.47zM265.678 47.308h-3.24l-.359-.359-1.8-4.682-.721-.359h-8.998l-.72.359-1.8 4.682-.36.359h-3.239l-.36-.359v-3.602l8.279-20.877.359-.359h4.68l.36.359 8.279 20.877v3.602l-.36.359zm-10.439-18.719h-.36l-3.24 8.639.361.361h6.119l.359-.361-3.239-8.639zM68.505 13.074h-1.481l-.165-.164-.823-2.14-.329-.166h-4.114l-.329.166-.824 2.14-.164.164h-1.481l-.165-.164v-1.646l3.786-9.545.164-.166h2.139l.165.166 3.785 9.545v1.646l-.164.164zm-4.773-8.557h-.165l-1.481 3.949.165.166h2.798l.164-.166-1.481-3.949zM72.127 13.074h-1.975l-.165-.165V1.72l.165-.166h1.975l.165.166v11.189zM81.673 9.618l-.165.165h-5.102l-.164.164c0 .329.329 1.317 1.645 1.317.494 0 .988-.166 1.152-.494l.165-.165h1.975l.164.165c-.164.988-.987 2.469-3.456 2.469-2.797 0-4.114-1.975-4.114-4.279s1.317-4.279 3.95-4.279 3.95 1.976 3.95 4.279v.658zm-2.469-1.646c0-.164-.165-1.315-1.481-1.315-1.317 0-1.481 1.151-1.481 1.315l.164.166h2.633l.165-.166zM85.459 13.403c0 1.976-.988 2.633-2.798 2.633h-.988l-.164-.164v-1.646l.164-.164h.823c.494 0 .659-.164.659-.658V5.01l.164-.164h1.975l.165.164v8.393zm-.165-9.875h-1.975l-.164-.164V1.719l.164-.165h1.975l.165.165v1.646l-.165.163zM94.017 13.074h-1.81l-.165-.164-.164-.33h-.165s-.659.659-1.811.659c-1.81 0-2.961-.988-2.961-2.634 0-2.468 2.303-2.798 3.62-2.798.658 0 1.152.164 1.152.164l.165-.164v-.163c0-.823-.165-.987-1.152-.987-.494 0-.988 0-1.153.493l-.164.165h-1.975l-.164-.166c0-.987.822-2.469 3.456-2.469 2.633 0 3.455 1.316 3.455 3.785v4.444l-.164.165zm-2.304-3.456s-.329-.165-.987-.165c-.988 0-1.482.33-1.482.988 0 .493.329.823 1.153.823.822 0 1.481-.494 1.481-1.152v-.329l-.165-.165zM103.563 13.074h-1.975l-.165-.165V8.138c0-.823-.329-1.481-1.316-1.481-1.152 0-1.811.658-1.811 2.14v4.113l-.164.165h-1.975l-.164-.165V5.011l.164-.166h1.81l.165.166.164.494h.165c.329-.33.988-.824 2.14-.824 1.975 0 3.127 1.316 3.127 3.291v4.938l-.165.164zM108.665 4.681c1.481 0 2.14.823 2.14.823h.164V1.719l.165-.164h1.975l.164.164v11.19l-.164.166h-1.81l-.165-.166-.165-.494h-.164s-.659.824-2.14.824c-1.975 0-3.62-1.646-3.62-4.279s1.645-4.279 3.62-4.279m.494 6.583c1.316 0 1.81-.987 1.81-2.304 0-1.317-.494-2.305-1.81-2.305s-1.811.987-1.811 2.305c0 1.316.495 2.304 1.811 2.304M120.516 6.82h-1.152c-1.317 0-1.81.659-1.81 2.14v3.949l-.164.165h-1.976l-.164-.165V5.011l.164-.166h1.81l.166.166.164.494h.164s.329-.66 1.811-.66h.987l.165.166v1.645l-.165.164zM125.124 13.239c-2.468 0-4.114-1.646-4.114-4.279s1.646-4.279 4.114-4.279c2.469 0 4.115 1.646 4.115 4.279s-1.646 4.279-4.115 4.279m0-6.584c-1.152 0-1.81.824-1.81 2.305s.658 2.304 1.81 2.304 1.811-.823 1.811-2.304-.659-2.305-1.811-2.305M144.875 13.074h-1.481l-.165-.165-.164-.822h-.165c-.329.328-1.151 1.152-2.962 1.152-3.292 0-5.431-2.469-5.431-5.925s2.139-5.925 5.596-5.925c3.291 0 4.607 1.81 4.938 3.455l-.165.166H142.9l-.164-.166c-.329-.657-.822-1.48-2.633-1.48-2.14 0-3.292 1.646-3.292 3.95s1.152 3.948 3.292 3.948c1.811 0 2.633-.986 2.633-2.303l-.165-.164h-2.798l-.164-.164V6.985l.164-.165h5.103l.165.165v5.924l-.166.165zM149.813 13.074h-2.304l-.165-.165v-2.138l.165-.166h2.304l.165.166v2.138zM158.701 13.074h-1.974l-.165-.165V1.72l.165-.166h1.974l.165.166v11.189zM168.74 13.074h-1.975l-.165-.164V8.138c0-.823-.328-1.481-1.316-1.481-1.152 0-1.81.658-1.81 2.14v4.114l-.165.164h-1.976l-.164-.164v-7.9l.164-.164h1.812l.164.164.165.494h.164c.33-.33.987-.824 2.14-.824 1.975 0 3.127 1.316 3.127 3.291v4.938l-.165.164zm-4.936-10.039c-.329 0-.494.165-.494.658l-.164.165h-.823l-.165-.165c0-1.315.823-1.974 1.812-1.974 1.315 0 1.645 1.15 2.304 1.15.328 0 .493-.164.493-.658l.165-.164h.822l.164.164c0 1.317-.821 1.975-1.81 1.975-1.318.001-1.647-1.151-2.304-1.151M177.299 13.074h-1.81l-.165-.164-.164-.33h-.165s-.659.659-1.811.659c-1.811 0-2.961-.988-2.961-2.634 0-2.468 2.303-2.798 3.619-2.798.658 0 1.152.164 1.152.164l.165-.164v-.163c0-.823-.165-.987-1.153-.987-.492 0-.986 0-1.151.493l-.164.165h-1.976l-.164-.165c0-.987.822-2.469 3.455-2.469 2.635 0 3.456 1.316 3.456 3.785v4.444l-.163.164zm-2.963-9.381l-.329.165h-1.48l-.164-.165v-.329l1.645-1.645.329-.166h1.646l.165.166v.328l-1.812 1.646zm.659 5.925s-.329-.165-.988-.165c-.986 0-1.48.33-1.48.988 0 .493.329.823 1.152.823.822 0 1.481-.494 1.481-1.152v-.329l-.165-.165zM184.541 6.82h-1.152c-1.316 0-1.81.659-1.81 2.14v3.949l-.165.165h-1.975l-.164-.165V5.011l.164-.166h1.81l.165.166.165.494h.164s.329-.66 1.811-.66h.987l.165.166v1.645l-.165.164zM191.289 6.82h-1.152c-1.316 0-1.81.659-1.81 2.14v3.949l-.165.165h-1.975l-.165-.165V5.011l.165-.166h1.81l.165.166.165.494h.164s.329-.66 1.81-.66h.988l.165.166v1.645l-.165.164zM194.91 3.529h-1.975l-.164-.165V1.72l.164-.166h1.975l.165.166v1.645l-.165.164zm0 9.545h-1.975l-.164-.165V5.011l.164-.166h1.975l.165.166v7.898l-.165.165zM200.178 10.605c0 .329.165.494.492.494h1.482l.164.164v1.646l-.164.166h-1.482c-1.48 0-2.797-.66-2.797-2.47V6.984l-.165-.164h-1.151l-.165-.165V5.011l.165-.165h1.151l.165-.165V3.2l.164-.164h1.976l.165.164v1.48l.165.165h1.81l.164.165v1.645l-.164.165h-1.81l-.165.164v3.621zM203.963 4.846h1.975l.165.165v4.771c0 .824.329 1.481 1.316 1.481 1.152 0 1.646-.823 1.646-1.976V5.011l.164-.165h1.976l.165.165v7.898l-.165.166h-1.811l-.165-.166-.164-.494h-.165s-.494.824-1.976.824c-1.975 0-3.127-1.316-3.127-3.291V5.011l.166-.165z"/></svg>