<svg xmlns="http://www.w3.org/2000/svg" width="40" height="59"><path fill="#D66061" d="M4.595 59h-.2c-.5-.1-.9-.6-.8-1.199l3.6-16.601c.1-.5.6-.899 1.2-.8.5.1.9.6.8 1.2l-3.7 16.6c-.099.5-.499.8-.9.8zM36.603 59c-.399 0-.8-.3-1-.699l-4.8-16.601c-.2-.5.199-1.101.699-1.2s1.101.2 1.201.7l4.799 16.601c.201.5-.199 1.1-.699 1.199h-.2z"/><path fill="#D66061" d="M33 47.5H6.9v2H33v-2zM35.5 54.6H4.6v2h30.9v-2zM35.4 42.4H4.6c-2.5 0-4.6-2-4.6-4.601V4.6C0 2 2 0 4.6 0h30.9C38 0 40 2 40 4.6v33.2c0 2.5-2 4.6-4.6 4.6zM4.6 2C3.1 2 2 3.1 2 4.6v33.2c0 1.4 1.1 2.6 2.6 2.6h30.9c1.4 0 2.6-1.101 2.6-2.601V4.6C38 3.1 36.9 2 35.4 2H4.6z"/><path fill="#D66061" d="M34.2 28.1H5.8c-.6 0-1-.4-1-1V10.5c0-.6.4-1 1-1h28.5c.601 0 1 .4 1 1v16.6c-.1.6-.5 1-1.1 1zm-27.4-2h26.5V11.5H6.8v14.6zM8.1 37.6c-1.9 0-3.4-1.5-3.4-3.399 0-1.9 1.5-3.4 3.4-3.4s3.4 1.5 3.4 3.4C11.5 36.1 10 37.6 8.1 37.6zm0-4.7c-.8 0-1.4.6-1.4 1.399s.6 1.4 1.4 1.4c.8 0 1.4-.601 1.4-1.4S8.9 32.9 8.1 32.9zM31.9 37.6c-1.9 0-3.4-1.5-3.4-3.399 0-1.9 1.5-3.4 3.4-3.4 1.899 0 3.399 1.5 3.399 3.4C35.3 36.1 33.7 37.6 31.9 37.6zm0-4.7c-.801 0-1.4.6-1.4 1.399s.6 1.4 1.4 1.4c.8 0 1.399-.601 1.399-1.4S32.6 32.9 31.9 32.9zM26 4.8H14.1v2H26v-2z"/></svg>