<svg xmlns="http://www.w3.org/2000/svg" width="209" height="61">
<title>The Phillips Collection</title>
<g fill="#ffffff"><path d="M33.27 57.32v-.71h1.39v-9.29H32l-.28 2.32h-.95v-3h9.29v3h-.9l-.28-2.32H36.2v7.9c0 1.38.19 1.39.49 1.39h.91v.71h-4.33zm12.38 0v-.63h1v-4.55c0-1-.34-1.47-1.07-1.47a1.88 1.88 0 0 0-1.22.64l-1.35 1.21v4.18h1v.62H40.7v-.62h1v-8.89c0-1.38-.17-1.38-.47-1.38h-.61v-.72l2.44-.11v5.92l1-.91a2.41 2.41 0 0 1 1.85-.75A1.84 1.84 0 0 1 48 51.77v4.91h1v.63h-3.4l.05.01zm5.25-3.76c-.06 1.69.85 3.13 2.6 3.13a3.2 3.2 0 0 0 2-.8l.33.36a3.33 3.33 0 0 1-2.63 1.25 3.56 3.56 0 0 1-3.74-3.78 3.7 3.7 0 0 1 3.58-3.87 2.49 2.49 0 0 1 2.71 2.39c-.01.454-.116.9-.31 1.31H50.9v.01zm3.61-1.46a1.54 1.54 0 0 0-1.43-1.61c-1.27 0-1.92 1.28-2.11 2.4h3.38a2.65 2.65 0 0 0 .16-.8v.01zm9.41.31h-1.33v2.77c0 1.38.19 1.39.49 1.39H64v.74h-4.35v-.73H61v-7.9c0-1.38-.19-1.39-.49-1.39h-.86v-.72h4.41c2.9 0 3.77 1.31 3.77 2.73s-1.22 3.11-3.91 3.11zm-.06-5.13h-1.28v4.46h1.28a2.28 2.28 0 0 0 2.43-2.12v-.14a2.11 2.11 0 0 0-2.43-2.2zm9.35 10.01v-.63h1v-4.57c0-1-.35-1.47-1.07-1.47a1.88 1.88 0 0 0-1.22.64l-1.35 1.21v4.18h1v.63h-3.4v-.61h1v-8.89c0-1.38-.17-1.38-.47-1.38h-.53v-.7l2.44-.11v5.89l1-.91a2.41 2.41 0 0 1 1.85-.75 1.84 1.84 0 0 1 2.08 1.92v4.91h1.06v.63h-3.39v.01zm4.21-.01v-.62h1.27V52c0-1.38-.19-1.38-.49-1.38h-.86v-.7l2.66-.11v6.84h1.26v.63h-3.84zm1.85-9.08a.913.913 0 0 1-.15-1.82h.15a.913.913 0 0 1 .15 1.82h-.15zM82 57.28v-.63h1.27v-8.89c0-1.38-.19-1.38-.49-1.38H82v-.67l2.68-.11v11.08h1.28v.63h-3.9l-.06-.03zm4.66-.01v-.62h1.27v-8.89c0-1.38-.19-1.38-.49-1.38h-.86v-.71l2.68-.11v11.08h1.27v.63h-3.87zm4.67 0v-.63h1.27V52c0-1.38-.19-1.38-.49-1.38h-.86v-.69l2.68-.13v6.84h1.29v.62h-3.89v.01zm1.85-9.08a.914.914 0 1 1-.18-1.82h.15a.913.913 0 1 1 .15 1.82h-.12zm5.89 9.26a4.06 4.06 0 0 1-1.39-.3v3h1v.65H95.3v-.62h1.07V52c0-1.38-.19-1.38-.49-1.38h-.67v-.7l2.32-.13.15 1.38a2.65 2.65 0 0 1 2.32-1.38c1.89 0 2.77 1.59 2.78 3.34-.02 1.97-1.32 4.31-3.71 4.32zm.62-6.79c-1 0-2 1-2 2.63v3.08a3.8 3.8 0 0 0 1.47.26c1.64 0 2.17-1.86 2.17-3.48 0-1.34-.56-2.49-1.63-2.49h-.01zm6.64 6.78a4.93 4.93 0 0 1-2.77-.89V54.7h.85l.28 1.46a2.87 2.87 0 0 0 1.64.58 1.51 1.51 0 0 0 1.74-1.22c0-.78-1-1.11-2.07-1.54-1.07-.43-2.32-1-2.32-2.22 0-1.41 1.53-2 2.86-2a3.48 3.48 0 0 1 2.36.77 1 1 0 0 1-.86 1 1.67 1.67 0 0 1-1.25-1.28c-1.22 0-1.74.58-1.74 1.24s.51 1 1.38 1.34c1.21.47 2.9.78 2.9 2.44s-1.53 2.17-3 2.17zm12.51-.02c-2.9 0-5.85-1.92-5.86-5.56a5.66 5.66 0 0 1 5.89-5.52 6.3 6.3 0 0 1 3.08.82l.11-.83h.85v3.43h-.81A2.92 2.92 0 0 0 119 47a4.65 4.65 0 0 0-4.34 4.87c0 3 1.94 4.8 4.39 4.8a5.61 5.61 0 0 0 3-.94l.42.54a5.74 5.74 0 0 1-3.63 1.15zm7.98-.01a3.51 3.51 0 0 1-3.48-3.83 3.5 3.5 0 1 1 7 0 3.51 3.51 0 0 1-3.52 3.83zm0-7c-1.36 0-2.08 1.61-2.08 3.19 0 1.58.68 3 2.08 3s2.06-1.52 2.06-3-.71-3.19-2.07-3.19h.01zm3.72 6.81v-.63h1.24V47.7c0-1.38-.19-1.38-.49-1.38h-.86v-.7l2.68-.12v11.09h1.27v.63h-3.84zm4.62-.01v-.62h1.27V47.7c0-1.38-.19-1.38-.49-1.38h-.86v-.7l2.68-.11v11.08H139v.63h-3.86l.02-.01zm5.65-3.76c-.06 1.69.85 3.13 2.6 3.12a3.2 3.2 0 0 0 2-.8l.33.38a3.33 3.33 0 0 1-2.63 1.25 3.57 3.57 0 0 1-3.74-3.79 3.68 3.68 0 0 1 3.63-3.84 2.49 2.49 0 0 1 2.71 2.39 3.23 3.23 0 0 1-.31 1.32h-4.55l-.04-.03zm3.61-1.45a1.55 1.55 0 0 0-1.42-1.65c-1.27 0-1.92 1.28-2.11 2.4h3.38a2.66 2.66 0 0 0 .16-.79l-.01.04zm8.58 4.16a3.33 3.33 0 0 1-2.63 1.23 3.57 3.57 0 0 1-3.74-3.79 3.83 3.83 0 0 1 6.21-3 1.06 1.06 0 0 1-.92 1 1.49 1.49 0 0 1-1.32-1.39c-1.61 0-2.52 1.74-2.51 3.38.01 1.64.82 3 2.57 3a3.17 3.17 0 0 0 2-.77l.34.34zm4.26 1.22a1.81 1.81 0 0 1-2.08-2v-4.84h-1.44v-.69l1.44-.13.23-2.16h1.1v2.29h2.18v.69h-2.18v4.86a1 1 0 0 0 1.25 1.11 3.88 3.88 0 0 0 1.25-.3l.24.58a4.55 4.55 0 0 1-1.99.59zm2.9-.19v-.63h1.27v-4.64c0-1.38-.19-1.38-.49-1.38h-.86v-.7l2.68-.13v6.84H164v.63h-3.86l.02.01zm1.84-9.08a.913.913 0 1 1-.15-1.82h.15a.91.91 0 0 1 0 1.82zm5.89 9.26a3.51 3.51 0 0 1-3.48-3.83 3.5 3.5 0 1 1 7 0 3.5 3.5 0 0 1-3.52 3.83zm0-7c-1.36 0-2.08 1.61-2.08 3.19 0 1.58.67 3.05 2.08 3 1.41-.05 2.11-1.49 2.11-3.02s-.73-3.19-2.09-3.19l-.02.02zm9.11 6.8v-.63h1V52c0-1-.35-1.47-1.07-1.47-.473.05-.91.28-1.22.64l-1.35 1.21v4.18h1v.63H172v-.64h1V51.9c0-1.38-.17-1.38-.47-1.38H172v-.68l2.28-.13.16 1.66 1-.91a2.41 2.41 0 0 1 1.85-.75 1.84 1.84 0 0 1 2.08 1.92v4.91h1v.63H177z" ></path><path  d="M61.01 1.24h1.5v34.37h-1.5z"></path><path  d="M54.11 35.61H52.6V23.07H40.67v12.54h-1.5V21.56h14.94z"></path><path  d="M30.76 1.24h1.5V35.6h-1.5z"></path><path  d="M54.11 15.61H39.17V1.24h1.5v12.87H52.6V1.24h1.51z"></path><path  d="M77.83 1.24h1.5v34.37h-1.5z"></path><path  d="M69.42 1.24h1.5v34.37h-1.5z"></path><path  d="M106.19 35.6H86.3l-.02-34.36h1.51l.01 32.86h18.39z"></path><path  d="M106.17 28.1H94.69V1.24h1.51V26.6h9.97z"></path><path  d="M131.93 35.61h-19.89V1.24h1.51V34.1h18.38z"></path><path  d="M131.93 28.1h-11.48V1.24h1.5V26.6h9.98z"></path><path  d="M146.18 1.24h1.5v34.37h-1.5z"></path><path  d="M137.77 1.24h1.5v34.37h-1.5z"></path><path  d="M154.63 1.23h1.5V35.6h-1.5z"></path><path d="M164.55 35.59H163V24.71l.81.06c.65.05 1.93.11 2.9.11 3.05 0 13-.8 13-11 0-4.24-1.74-11.35-13.47-11.35-1 0-2.11 0-3.29.09l.05-1.5c1.2-.06 2.32-.09 3.36-.09 9.52 0 15 4.64 15 12.82a11.42 11.42 0 0 1-4.54 9.67 16.83 16.83 0 0 1-10 2.82c-.71 0-1.56 0-2.24-.06v9.29l-.03.02z" ></path><path d="M165.91 19.51c-1 0-2.19-.06-2.65-.12l.21-1.47c.34 0 1.48.1 2.43.1 3.37 0 5-1.32 5-4.06 0-3.52-3.13-4.06-5-4.06a18.77 18.77 0 0 0-2.42.16l-.24-1.46a20.27 20.27 0 0 1 2.66-.17c4.06 0 6.51 2.07 6.51 5.53 0 3.46-2.31 5.55-6.5 5.55z" ></path><path  d="M0 1.23h1.5v34.36H0z"></path><path d="M9.92 35.61H8.41v-10.9l.81.06c.66.05 1.93.11 2.9.11 3.05 0 13-.8 13-11 0-4.24-1.74-11.35-13.47-11.35-1 0-2.11 0-3.29.09l-.02-1.49C9.54 1.07 10.66 1 11.7 1c9.52 0 15 4.64 15 12.82a11.42 11.42 0 0 1-4.54 9.67 16.78 16.78 0 0 1-10 2.82c-.71 0-1.56 0-2.24-.06v9.36z" ></path><path d="M11.7 19.51c-1 0-2.19-.06-2.65-.12l.23-1.47c.34 0 1.49.1 2.43.1 3.37 0 5-1.32 5-4.06 0-3.52-3.13-4.06-5-4.06a18.81 18.81 0 0 0-2.42.16l-.23-1.47a20.28 20.28 0 0 1 2.66-.17c4.06 0 6.51 2.07 6.51 5.53 0 3.46-2.33 5.56-6.53 5.56z" ></path><path d="M194.7 22.54c3.54.85 4.57 1.47 4.57 2.78 0 1.31-1.34 2.15-4 2.15a14.68 14.68 0 0 1-8.81-3.17v1.78a15.59 15.59 0 0 0 8.81 2.84c3.48 0 5.49-1.31 5.49-3.61 0-2.6-2.47-3.4-5.71-4.18-6.46-1.57-9-4.2-9-9.41 0-5.63 4.27-9.29 10.87-9.29a17 17 0 0 1 8.79 2.19V3A18.58 18.58 0 0 0 197 1c-7.4 0-12.35 4.31-12.35 10.72-.03 5.87 2.96 9.1 10.05 10.82z" ></path><path d="M199.18 14.12c-3.68-.9-4.91-1.44-4.91-2.9 0-1.64 1.9-1.88 3-1.88a13.29 13.29 0 0 1 8.44 3.2v-1.81a14.34 14.34 0 0 0-8.41-2.83c-3.34 0-4.53 1.74-4.53 3.33 0 2.81 2.94 3.53 6 4.28 6.26 1.58 8.71 4.25 8.71 9.52 0 2.8-1.16 9.33-12.19 9.33a18.35 18.35 0 0 1-8.86-2.14v1.65a20.62 20.62 0 0 0 8.88 2C203.9 35.84 209 31.77 209 25c0-6-2.83-9.12-9.82-10.88z" ></path></g>
</svg>
