<svg xmlns="http://www.w3.org/2000/svg" width="39" height="46"><path fill="#D66061" d="M2.9 3.9l.316.949.038-.014L2.9 3.9zm32.4 0l-.354.936.038.013.316-.949zm1.9 33.3h-1c0 .047.003.095.01.142l.99-.142zM4.6 9.9v-1a1 1 0 0 0-1 1h1zm0 16.3h-1a1 1 0 0 0 1 1v-1zm29.1 0v1a1 1 0 0 0 1-1h-1zm0-16.3h1a1 1 0 0 0-1-1v1zM10.1 39h1a1 1 0 0 0-1-1v1zm-7.3 0v-1a1 1 0 0 0-1 1h1zm32.7 0h1a1 1 0 0 0-1-1v1zm-7.3 0v-1a1 1 0 0 0-1 1h1zM14.6 5.3a1 1 0 0 0 0 2v-2zm9.1 2a1 1 0 1 0 0-2v2zm8.1 25.3l-.997-.066a.729.729 0 0 0-.003.066h1zm-19.9 0h-1 1zM35.7 38H2.6v2h33.1v-2zM2.6 38c-.026 0-.164-.023-.344-.258C2.079 37.51 2 37.244 2 37.1H0c0 .656.271 1.341.669 1.859C1.064 39.475 1.726 40 2.6 40v-2zm-.6-.9V6.4H0v30.7h2zM2 6.4c0-.646.402-1.28 1.216-1.551l-.632-1.898C.998 3.48 0 4.846 0 6.4h2zm1.254-1.565C6.863 3.47 12.442 2 19.2 2V0C12.158 0 6.337 1.53 2.546 2.965l.708 1.87zM19.2 2c6.753 0 12.132 1.468 15.746 2.835l.708-1.871C31.867 1.532 26.246 0 19.2 0v2zm15.784 2.849c.814.271 1.216.905 1.216 1.551h2c0-1.554-.998-2.92-2.584-3.449l-.632 1.898zM36.2 6.4v30.8h2V6.4h-2zm.01 30.942c-.002-.015.005.027-.026.125a1.008 1.008 0 0 1-.155.291c-.163.214-.299.242-.329.242v2c.87 0 1.533-.521 1.921-1.033.38-.5.668-1.213.568-1.908l-1.979.283zM3.6 9.9v16.3h2V9.9h-2zm1 17.3h29.1v-2H4.6v2zm30.1-1V9.9h-2v16.3h2zm-1-17.3H4.6v2h29.1v-2zM11.1 43v-4h-2v4h2zm-1-5H2.8v2h7.3v-2zm-8.3 1v4h2v-4h-2zm0 4c0 1.353 1.048 2.4 2.4 2.4v-2c-.248 0-.4-.152-.4-.4h-2zm2.4 2.4h4.5v-2H4.2v2zm4.5 0c1.352 0 2.4-1.048 2.4-2.4h-2c0 .248-.152.4-.4.4v2zM36.5 43v-4h-2v4h2zm-1-5h-7.3v2h7.3v-2zm-8.3 1v4h2v-4h-2zm0 4c0 1.353 1.048 2.4 2.399 2.4v-2c-.247 0-.399-.152-.399-.4h-2zm2.4 2.4h4.5v-2h-4.5v2zm4.5 0c1.353 0 2.4-1.048 2.4-2.4h-2c0 .248-.152.4-.4.4v2zM14.6 7.3h9.1v-2h-9.1v2zm9.1-2h-9.1v2h9.1v-2zm5.4 23.6a3.687 3.687 0 0 0-3.699 3.699h2c0-.947.752-1.699 1.699-1.699v-2zm-3.7 3.7c0 2.053 1.647 3.7 3.699 3.7v-2a1.688 1.688 0 0 1-1.699-1.7h-2zm3.7 3.7c2.053 0 3.7-1.647 3.7-3.7h-2c0 .948-.752 1.7-1.7 1.7v2zm3.698-3.634c.142-2.141-1.585-3.766-3.698-3.766v2c1.088 0 1.76.773 1.703 1.633l1.995.133zM9.2 28.9a3.688 3.688 0 0 0-3.7 3.699h2c0-.947.752-1.699 1.7-1.699v-2zm-3.7 3.7c0 2.053 1.647 3.7 3.7 3.7v-2c-.948 0-1.7-.752-1.7-1.7h-2zm3.7 3.7c2.052 0 3.7-1.647 3.7-3.7h-2c0 .948-.752 1.7-1.7 1.7v2zm3.7-3.7a3.688 3.688 0 0 0-3.7-3.699v2c.948 0 1.7.752 1.7 1.699h2z"/></svg>